<mxfile host="app.diagrams.net" agent="Mozilla/5.0 (X11; Linux x86_64) AppleWebKit/537.36 (KHTML, like Gecko) Chrome/129.0.0.0 Safari/537.36" version="25.0.3">
  <diagram name="Page-1" id="yYv8nlqnmOdrYp9flfh6">
    <mxGraphModel dx="1034" dy="727" grid="1" gridSize="10" guides="1" tooltips="1" connect="1" arrows="1" fold="1" page="1" pageScale="1" pageWidth="827" pageHeight="1169" math="0" shadow="0">
      <root>
        <mxCell id="0" />
        <mxCell id="1" parent="0" />
        <mxCell id="wB2T6KW0IdVaucVo9_J4-1" value="开始：理解任务" style="whiteSpace=wrap;strokeWidth=2;" vertex="1" parent="1">
          <mxGeometry x="455" y="20" width="172" height="49" as="geometry" />
        </mxCell>
        <mxCell id="wB2T6KW0IdVaucVo9_J4-2" value="实现棋盘与棋子逻辑" style="whiteSpace=wrap;strokeWidth=2;" vertex="1" parent="1">
          <mxGeometry x="217" y="142" width="204" height="49" as="geometry" />
        </mxCell>
        <mxCell id="wB2T6KW0IdVaucVo9_J4-3" value="棋盘渲染" style="whiteSpace=wrap;strokeWidth=2;" vertex="1" parent="1">
          <mxGeometry x="470" y="264" width="124" height="49" as="geometry" />
        </mxCell>
        <mxCell id="wB2T6KW0IdVaucVo9_J4-4" value="棋子定义与渲染" style="whiteSpace=wrap;strokeWidth=2;" vertex="1" parent="1">
          <mxGeometry x="130" y="264" width="172" height="49" as="geometry" />
        </mxCell>
        <mxCell id="wB2T6KW0IdVaucVo9_J4-5" value="实现移动规则" style="whiteSpace=wrap;strokeWidth=2;" vertex="1" parent="1">
          <mxGeometry x="28" y="386" width="156" height="49" as="geometry" />
        </mxCell>
        <mxCell id="wB2T6KW0IdVaucVo9_J4-6" value="移动合法性验证" style="whiteSpace=wrap;strokeWidth=2;" vertex="1" parent="1">
          <mxGeometry x="20" y="508" width="172" height="49" as="geometry" />
        </mxCell>
        <mxCell id="wB2T6KW0IdVaucVo9_J4-7" value="实现游戏规则" style="whiteSpace=wrap;strokeWidth=2;" vertex="1" parent="1">
          <mxGeometry x="28" y="630" width="156" height="49" as="geometry" />
        </mxCell>
        <mxCell id="wB2T6KW0IdVaucVo9_J4-8" value="用户交互" style="whiteSpace=wrap;strokeWidth=2;" vertex="1" parent="1">
          <mxGeometry x="470" y="386" width="124" height="49" as="geometry" />
        </mxCell>
        <mxCell id="wB2T6KW0IdVaucVo9_J4-9" value="切换为.obj文件" style="whiteSpace=wrap;strokeWidth=2;" vertex="1" parent="1">
          <mxGeometry x="242" y="386" width="169" height="49" as="geometry" />
        </mxCell>
        <mxCell id="wB2T6KW0IdVaucVo9_J4-10" value="为.obj添加纹理" style="whiteSpace=wrap;strokeWidth=2;" vertex="1" parent="1">
          <mxGeometry x="242" y="508" width="169" height="49" as="geometry" />
        </mxCell>
        <mxCell id="wB2T6KW0IdVaucVo9_J4-11" value="扩展3D视角" style="whiteSpace=wrap;strokeWidth=2;" vertex="1" parent="1">
          <mxGeometry x="461" y="508" width="142" height="49" as="geometry" />
        </mxCell>
        <mxCell id="wB2T6KW0IdVaucVo9_J4-13" value="配置开发环境" style="whiteSpace=wrap;strokeWidth=2;" vertex="1" parent="1">
          <mxGeometry x="783" y="142" width="156" height="49" as="geometry" />
        </mxCell>
        <mxCell id="wB2T6KW0IdVaucVo9_J4-14" value="配置OpenGL与GLUT" style="whiteSpace=wrap;strokeWidth=2;" vertex="1" parent="1">
          <mxGeometry x="644" y="264" width="203" height="49" as="geometry" />
        </mxCell>
        <mxCell id="wB2T6KW0IdVaucVo9_J4-15" value="验证基本渲染" style="whiteSpace=wrap;strokeWidth=2;" vertex="1" parent="1">
          <mxGeometry x="898" y="264" width="156" height="49" as="geometry" />
        </mxCell>
        <mxCell id="wB2T6KW0IdVaucVo9_J4-16" value="" style="curved=1;startArrow=none;endArrow=block;exitX=0;exitY=0.98;entryX=0.5;entryY=0;rounded=0;" edge="1" parent="1" source="wB2T6KW0IdVaucVo9_J4-1" target="wB2T6KW0IdVaucVo9_J4-2">
          <mxGeometry relative="1" as="geometry">
            <Array as="points">
              <mxPoint x="319" y="106" />
            </Array>
          </mxGeometry>
        </mxCell>
        <mxCell id="wB2T6KW0IdVaucVo9_J4-17" value="完成" style="curved=1;startArrow=none;endArrow=block;exitX=0.92;exitY=1;entryX=0.5;entryY=0;rounded=0;" edge="1" parent="1" source="wB2T6KW0IdVaucVo9_J4-2" target="wB2T6KW0IdVaucVo9_J4-3">
          <mxGeometry relative="1" as="geometry">
            <Array as="points">
              <mxPoint x="532" y="228" />
            </Array>
          </mxGeometry>
        </mxCell>
        <mxCell id="wB2T6KW0IdVaucVo9_J4-18" value="完成" style="curved=1;startArrow=none;endArrow=block;exitX=0.3;exitY=1;entryX=0.5;entryY=0;rounded=0;" edge="1" parent="1" source="wB2T6KW0IdVaucVo9_J4-2" target="wB2T6KW0IdVaucVo9_J4-4">
          <mxGeometry relative="1" as="geometry">
            <Array as="points">
              <mxPoint x="216" y="228" />
            </Array>
          </mxGeometry>
        </mxCell>
        <mxCell id="wB2T6KW0IdVaucVo9_J4-19" value="完成" style="curved=1;startArrow=none;endArrow=block;exitX=0.24;exitY=1;entryX=0.5;entryY=0;rounded=0;" edge="1" parent="1" source="wB2T6KW0IdVaucVo9_J4-4" target="wB2T6KW0IdVaucVo9_J4-5">
          <mxGeometry relative="1" as="geometry">
            <Array as="points">
              <mxPoint x="106" y="350" />
            </Array>
          </mxGeometry>
        </mxCell>
        <mxCell id="wB2T6KW0IdVaucVo9_J4-20" value="完成" style="curved=1;startArrow=none;endArrow=block;exitX=0.5;exitY=1;entryX=0.5;entryY=0;rounded=0;" edge="1" parent="1" source="wB2T6KW0IdVaucVo9_J4-5" target="wB2T6KW0IdVaucVo9_J4-6">
          <mxGeometry relative="1" as="geometry">
            <Array as="points" />
          </mxGeometry>
        </mxCell>
        <mxCell id="wB2T6KW0IdVaucVo9_J4-21" value="未完成" style="curved=1;startArrow=none;endArrow=block;exitX=0.5;exitY=1;entryX=0.5;entryY=0;rounded=0;" edge="1" parent="1" source="wB2T6KW0IdVaucVo9_J4-6" target="wB2T6KW0IdVaucVo9_J4-7">
          <mxGeometry relative="1" as="geometry">
            <Array as="points" />
          </mxGeometry>
        </mxCell>
        <mxCell id="wB2T6KW0IdVaucVo9_J4-22" value="未完成" style="curved=1;startArrow=none;endArrow=block;exitX=0.5;exitY=1;entryX=0.5;entryY=0;rounded=0;" edge="1" parent="1" source="wB2T6KW0IdVaucVo9_J4-3" target="wB2T6KW0IdVaucVo9_J4-8">
          <mxGeometry relative="1" as="geometry">
            <Array as="points" />
          </mxGeometry>
        </mxCell>
        <mxCell id="wB2T6KW0IdVaucVo9_J4-23" value="未完成" style="curved=1;startArrow=none;endArrow=block;exitX=0.76;exitY=1;entryX=0.5;entryY=0;rounded=0;" edge="1" parent="1" source="wB2T6KW0IdVaucVo9_J4-4" target="wB2T6KW0IdVaucVo9_J4-9">
          <mxGeometry relative="1" as="geometry">
            <Array as="points">
              <mxPoint x="327" y="350" />
            </Array>
          </mxGeometry>
        </mxCell>
        <mxCell id="wB2T6KW0IdVaucVo9_J4-24" value="未来" style="curved=1;startArrow=none;endArrow=block;exitX=0.5;exitY=1;entryX=0.5;entryY=0;rounded=0;" edge="1" parent="1" source="wB2T6KW0IdVaucVo9_J4-9" target="wB2T6KW0IdVaucVo9_J4-10">
          <mxGeometry relative="1" as="geometry">
            <Array as="points" />
          </mxGeometry>
        </mxCell>
        <mxCell id="wB2T6KW0IdVaucVo9_J4-25" value="未来" style="curved=1;startArrow=none;endArrow=block;exitX=0.5;exitY=1;entryX=0.5;entryY=0;rounded=0;" edge="1" parent="1" source="wB2T6KW0IdVaucVo9_J4-8" target="wB2T6KW0IdVaucVo9_J4-11">
          <mxGeometry relative="1" as="geometry">
            <Array as="points" />
          </mxGeometry>
        </mxCell>
        <mxCell id="wB2T6KW0IdVaucVo9_J4-27" value="准备" style="curved=1;startArrow=none;endArrow=block;exitX=1;exitY=0.83;entryX=0.5;entryY=0;rounded=0;" edge="1" parent="1" source="wB2T6KW0IdVaucVo9_J4-1" target="wB2T6KW0IdVaucVo9_J4-13">
          <mxGeometry relative="1" as="geometry">
            <Array as="points">
              <mxPoint x="861" y="106" />
            </Array>
          </mxGeometry>
        </mxCell>
        <mxCell id="wB2T6KW0IdVaucVo9_J4-28" value="完成" style="curved=1;startArrow=none;endArrow=block;exitX=0.2;exitY=1;entryX=0.5;entryY=0;rounded=0;" edge="1" parent="1" source="wB2T6KW0IdVaucVo9_J4-13" target="wB2T6KW0IdVaucVo9_J4-14">
          <mxGeometry relative="1" as="geometry">
            <Array as="points">
              <mxPoint x="746" y="228" />
            </Array>
          </mxGeometry>
        </mxCell>
        <mxCell id="wB2T6KW0IdVaucVo9_J4-29" value="完成" style="curved=1;startArrow=none;endArrow=block;exitX=0.8;exitY=1;entryX=0.5;entryY=0;rounded=0;" edge="1" parent="1" source="wB2T6KW0IdVaucVo9_J4-13" target="wB2T6KW0IdVaucVo9_J4-15">
          <mxGeometry relative="1" as="geometry">
            <Array as="points">
              <mxPoint x="976" y="228" />
            </Array>
          </mxGeometry>
        </mxCell>
      </root>
    </mxGraphModel>
  </diagram>
</mxfile>
